<?xml version="1.0" encoding="utf-8"?>
<!-- Generator: Adobe Illustrator 22.0.0, SVG Export Plug-In . SVG Version: 6.00 Build 0)  -->
<svg version="1.1" id="Layer_1" xmlns="http://www.w3.org/2000/svg" xmlns:xlink="http://www.w3.org/1999/xlink" x="0px" y="0px"
	 viewBox="0 0 52 52" style="enable-background:new 0 0 52 52;" xml:space="preserve">
<style type="text/css">
	.st0{fill:#2D6E9E;}
	.st1{fill:#FFFFFF;}
</style>
<title>circle5</title>
<g id="Layer_2_1_">
	<g id="Layer_1-2">
		<circle class="st0" cx="26" cy="26" r="26"/>
		<path class="st1" d="M35,38H17c-1.1,0-2-0.9-2-2V25.4c0-1.1,0.9-2,2-2h18c1.1,0,2,0.9,2,2V36C37,37.1,36.1,38,35,38z M35,36L35,36
			z M17,25.4V36h18V25.4H17z"/>
		<path class="st1" d="M32.4,25.1c-0.6,0-1-0.4-1-1v-2.8c-0.1-3-2.7-5.3-5.6-5.2c-2.8,0.1-5.1,2.4-5.2,5.2v2.8c0,0.6-0.4,1-1,1
			s-1-0.4-1-1v-2.8c0.2-4.1,3.6-7.3,7.7-7.1c3.9,0.1,7,3.3,7.1,7.1v2.8C33.4,24.7,33,25.1,32.4,25.1z"/>
		<path class="st1" d="M26,27.3c-1.1,0-2.1,0.9-2.1,2.1c0,0.8,0.4,1.4,1.1,1.8v2.4h2v-2.3c1-0.6,1.4-1.8,0.8-2.8
			C27.4,27.7,26.8,27.3,26,27.3z"/>
	</g>
</g>
</svg>
