<?xml version="1.0" encoding="utf-8"?>
<!-- Generator: Adobe Illustrator 22.0.0, SVG Export Plug-In . SVG Version: 6.00 Build 0)  -->
<svg version="1.1" id="Layer_1" xmlns="http://www.w3.org/2000/svg" xmlns:xlink="http://www.w3.org/1999/xlink" x="0px" y="0px"
	 viewBox="0 0 52 52" style="enable-background:new 0 0 52 52;" xml:space="preserve">
<style type="text/css">
	.st0{fill:#2D6E9E;}
	.st1{fill:#FFFFFF;}
</style>
<title>circle4</title>
<g id="Layer_2_1_">
	<g id="Layer_1-2">
		<circle class="st0" cx="26" cy="26" r="26"/>
		<path class="st1" d="M26,38.2c-3.4,0-6.1-2.7-6.1-6.1c0-2,1-3.9,2.7-5V20c0-0.6,0.4-1,1-1s1,0.4,1,1v7.6c0,0.4-0.2,0.7-0.5,0.9
			c-2,1.1-2.7,3.5-1.6,5.5s3.5,2.7,5.5,1.6c2-1.1,2.7-3.5,1.6-5.5c-0.4-0.7-1-1.3-1.6-1.6c-0.3-0.2-0.5-0.5-0.5-0.9V20
			c0-0.6,0.4-1,1-1s1,0.4,1,1v7.1c2.8,1.9,3.5,5.7,1.6,8.4C29.9,37.2,28,38.2,26,38.2z"/>
		<path class="st1" d="M23.3,21.1h-1c-0.6,0-1-0.4-1-1s0.4-1,1-1h1c0.6,0,1,0.4,1,1S23.8,21.1,23.3,21.1z"/>
		<path class="st1" d="M29.7,21.1h-1c-0.6,0-1-0.4-1-1s0.4-1,1-1h1c0.6,0,1,0.4,1,1S30.3,21.1,29.7,21.1z"/>
		<path class="st1" d="M28.2,17.8c-1.1,0-2-0.9-2-2s0.9-2,2-2s2,0.9,2,2S29.3,17.8,28.2,17.8z M28.2,14.8c-0.6,0-1,0.4-1,1
			c0,0.6,0.4,1,1,1s1-0.4,1-1C29.2,15.2,28.8,14.8,28.2,14.8z"/>
		<path class="st1" d="M25.3,17.1c-0.4,0-0.8,0.3-0.8,0.8s0.3,0.8,0.8,0.8s0.8-0.3,0.8-0.8S25.7,17.1,25.3,17.1z"/>
	</g>
</g>
</svg>
