<?xml version="1.0" encoding="utf-8"?>
<!-- Generator: Adobe Illustrator 22.0.0, SVG Export Plug-In . SVG Version: 6.00 Build 0)  -->
<svg version="1.1" id="Layer_1" xmlns="http://www.w3.org/2000/svg" xmlns:xlink="http://www.w3.org/1999/xlink" x="0px" y="0px"
	 viewBox="0 0 52 52" style="enable-background:new 0 0 52 52;" xml:space="preserve">
<style type="text/css">
	.st0{fill:#2D6E9E;}
	.st1{fill:#FFFFFF;}
</style>
<title>circle2</title>
<g id="Layer_2_1_">
	<g id="Layer_1-2">
		<circle class="st0" cx="26" cy="26" r="26"/>
		<path class="st1" d="M23.6,22.5c-2.6,0-4.8-2.4-4.8-5.4s2.1-5.4,4.8-5.4c2.8,0.2,4.9,2.6,4.8,5.4C28.5,20,26.4,22.4,23.6,22.5z
			 M23.6,13.8c-1.7,0.2-2.9,1.7-2.8,3.4c-0.1,1.7,1.1,3.2,2.8,3.4c1.7-0.2,2.9-1.7,2.8-3.4C26.5,15.5,25.3,14,23.6,13.8z"/>
		<path class="st1" d="M30.9,40.2c-3.4,0-6.2-2.8-6.2-6.2s2.8-6.2,6.2-6.2s6.2,2.8,6.2,6.2l0,0C37.1,37.4,34.3,40.2,30.9,40.2z
			 M30.9,28.8c-2.9,0-5.2,2.3-5.2,5.2s2.3,5.2,5.2,5.2s5.2-2.3,5.2-5.2C36.1,31.1,33.8,28.8,30.9,28.8L30.9,28.8z"/>
		<path class="st1" d="M25.2,34.9h-9c-0.5,0-1-0.4-1-0.9l-0.3-4.7c0-1.9,1.2-3.6,3-4.4c3.7-1.3,7.7-1.3,11.4,0
			c1.3,0.6,2.4,1.7,2.8,3.1l-1.9,0.5c-0.2-0.8-0.8-1.5-1.6-1.8c-3.2-1.2-6.8-1.2-10,0C17.7,27.1,17,28,17,29.1l0.3,3.8h8.1
			L25.2,34.9z"/>
		<path class="st1" d="M29.9,37.6c-0.3,0-0.5-0.1-0.7-0.3l-1.6-1.7c-0.4-0.4-0.3-1.1,0.1-1.4c0.4-0.3,0.9-0.3,1.3,0l0.9,0.9l2.9-3.5
			c0.4-0.4,1-0.5,1.4-0.1s0.5,1,0.1,1.4l-3.6,4.4C30.5,37.5,30.2,37.6,29.9,37.6L29.9,37.6z"/>
	</g>
</g>
</svg>
