<?xml version="1.0" encoding="utf-8"?>
<!-- Generator: Adobe Illustrator 22.0.0, SVG Export Plug-In . SVG Version: 6.00 Build 0)  -->
<svg version="1.1" id="Layer_1" xmlns="http://www.w3.org/2000/svg" xmlns:xlink="http://www.w3.org/1999/xlink" x="0px" y="0px"
	 viewBox="0 0 52 52" style="enable-background:new 0 0 52 52;" xml:space="preserve">
<style type="text/css">
	.st0{fill:#FFFFFF;}
	.st1{fill:#2D6E9E;}
</style>
<symbol  id="New_Symbol" viewBox="-11.9 -11.9 23.8 23.8">
	<path class="st0" d="M0,11.9c-6.6,0-11.9-5.3-11.9-11.9S-6.6-11.9,0-11.9S11.9-6.6,11.9,0l0,0C11.9,6.6,6.6,11.9,0,11.9z M0-9.9
		c-5.5,0-9.9,4.4-9.9,9.9S-5.4,9.9,0,9.9S9.9,5.5,9.9,0l0,0C9.9-5.4,5.5-9.9,0-9.9z"/>
	<path class="st0" d="M0,11.4c-3.7,0-6.8-5.1-6.8-11.4s3-11.4,6.8-11.4S6.8-6.3,6.8,0S3.7,11.4,0,11.4z M0-10.4
		c-3.2,0-5.8,4.6-5.8,10.4S-3.2,10.4,0,10.4S5.8,5.7,5.8,0S3.2-10.4,0-10.4z"/>
	<path class="st0" d="M0,11.4c-0.3,0-0.5-0.2-0.5-0.5v-21.8c0-0.3,0.2-0.5,0.5-0.5C6.3-11.2,11.2-6,11,0.3C10.9,6.4,6,11.2,0,11.4z
		 M0.5-10.4v20.7C6.2,10,10.6,5.1,10.3-0.6C10-5.8,5.8-10.1,0.5-10.4z"/>
	<path class="st0" d="M10.1,4.3h-20.3c-0.2,0-0.4-0.1-0.5-0.3c-1-2.6-1-5.4,0-8c0.1-0.2,0.3-0.3,0.5-0.3h20.3c0.2,0,0.4,0.1,0.5,0.3
		c1,2.6,1,5.4,0,8C10.5,4.2,10.3,4.3,10.1,4.3z M-9.9,3.3H9.8c0.7-2.2,0.7-4.5,0-6.7H-9.8C-10.6-1.2-10.6,1.2-9.9,3.3L-9.9,3.3z"/>
</symbol>
<title>circle1</title>
<g id="Layer_2_1_">
	<g id="Layer_1-2">
		<circle class="st1" cx="26" cy="26" r="26"/>
		
			<use xlink:href="#New_Symbol"  width="23.8" height="23.8" x="-11.9" y="-11.9" transform="matrix(0.9996 0 0 0.9996 26.005 26.005)" style="overflow:visible;"/>
	</g>
</g>
</svg>
