<?xml version="1.0" encoding="utf-8"?>
<!-- Generator: Adobe Illustrator 22.0.0, SVG Export Plug-In . SVG Version: 6.00 Build 0)  -->
<svg version="1.1" id="Layer_1" xmlns="http://www.w3.org/2000/svg" xmlns:xlink="http://www.w3.org/1999/xlink" x="0px" y="0px"
	 viewBox="0 0 52 52" style="enable-background:new 0 0 52 52;" xml:space="preserve">
<style type="text/css">
	.st0{fill:#2D6E9E;}
	.st1{fill:#FFFFFF;}
</style>
<title>circle3</title>
<g id="Layer_2_1_">
	<g id="Layer_1-2">
		<circle class="st0" cx="26" cy="26" r="26"/>
		<path class="st1" d="M26,37.8c-6.5,0-11.8-5.3-11.8-11.9c0-6.2,4.8-11.3,11-11.7c0.3,0,0.5,0.1,0.8,0.3c0.2,0.2,0.3,0.5,0.3,0.7
			v10.5h10.5c0.6,0,1,0.4,1,1c0,0,0,0,0,0.1C37.4,33,32.2,37.8,26,37.8z M24.3,16.3c-5.3,0.9-8.9,6-7.9,11.4c0.9,5.3,6,8.9,11.4,7.9
			c4.1-0.7,7.2-3.9,7.9-7.9H25.3c-0.6,0-1-0.4-1-1V16.3z"/>
		<path class="st1" d="M36.3,24.5h-8.1c-0.3,0-0.5-0.2-0.5-0.5v-8.1c0-0.3,0.2-0.5,0.5-0.5c4.7,0,8.6,3.8,8.6,8.6
			C36.8,24.3,36.6,24.5,36.3,24.5z M28.7,23.5h7.1c-0.3-3.8-3.3-6.8-7.1-7.1L28.7,23.5z"/>
	</g>
</g>
</svg>
