<?xml version="1.0" encoding="utf-8"?>
<!-- Generator: Adobe Illustrator 22.0.0, SVG Export Plug-In . SVG Version: 6.00 Build 0)  -->
<svg version="1.1" id="Layer_1" xmlns="http://www.w3.org/2000/svg" xmlns:xlink="http://www.w3.org/1999/xlink" x="0px" y="0px"
	 viewBox="0 0 52 52" style="enable-background:new 0 0 52 52;" xml:space="preserve">
<style type="text/css">
	.st0{fill:#2D6E9E;}
	.st1{fill:#FFFFFF;}
</style>
<title>circle6</title>
<g id="Layer_2_1_">
	<g id="Layer_1-2">
		<circle class="st0" cx="26" cy="26" r="26"/>
		<path class="st1" d="M19.9,30.1c-0.3,0-0.5-0.1-0.7-0.3l-3.9-3.9c-0.4-0.4-0.4-1,0-1.4l3.9-3.9c0.3-0.5,0.9-0.6,1.4-0.3
			c0.5,0.3,0.6,0.9,0.3,1.4c-0.1,0.1-0.2,0.2-0.3,0.3l-3.2,3.2l3.2,3.2c0.4,0.4,0.4,1,0,1.4C20.4,29.9,20.2,30,19.9,30.1L19.9,30.1z
			"/>
		<path class="st1" d="M26,37.8c-0.6,0-1-0.4-1-1V29c0-1.6-1.3-2.9-2.9-2.9h-4.8c-0.6,0-1-0.4-1-1s0.4-1,1-1h4.8
			c2.7,0,4.9,2.2,4.9,4.9v7.8C27,37.4,26.6,37.8,26,37.8L26,37.8z"/>
		<path class="st1" d="M32.1,30.1c-0.6,0-1-0.4-1-1c0-0.3,0.1-0.5,0.3-0.7l3.2-3.2L31.4,22c-0.4-0.4-0.3-1.1,0.1-1.4s0.9-0.3,1.3,0
			l3.9,3.9c0.4,0.4,0.4,1,0,1.4l-3.9,3.9C32.6,30,32.4,30.1,32.1,30.1z"/>
		<path class="st1" d="M26,37.8c-0.6,0-1-0.4-1-1V29c0-2.7,2.2-4.9,4.9-4.9h4.8c0.6,0,1,0.4,1,1s-0.4,1-1,1h-4.8
			c-1.6,0-2.9,1.3-2.9,2.9v7.8C27,37.4,26.6,37.8,26,37.8L26,37.8z"/>
		<path class="st1" d="M29.9,20c-0.3,0-0.5-0.1-0.7-0.3L26,16.6l-3.2,3.2c-0.4,0.4-1.1,0.3-1.4-0.1s-0.3-0.9,0-1.3l3.9-3.9
			c0.4-0.4,1-0.4,1.4,0l3.9,3.9c0.4,0.4,0.4,1-0.1,1.4C30.3,19.9,30.1,20,29.9,20z"/>
		<path class="st1" d="M26,32.1c-0.6,0-1-0.4-1-1V16.2c0-0.6,0.4-1,1-1s1,0.4,1,1v14.9C27,31.6,26.6,32.1,26,32.1L26,32.1z"/>
	</g>
</g>
</svg>
